<svg width="128" height="78" viewBox="0 0 128 78" fill="none" xmlns="http://www.w3.org/2000/svg">
<g clip-path="url(#clip0_14_816)">
<path d="M127.03 77.9999L116.728 -0.000732422L16.0878 25.2465L0 77.9999H127.03Z" fill="#CC27B0"/>
<path d="M21.4511 34.2329C21.4511 32.4316 22.8851 30.8643 25.2204 30.8643C26.7191 30.8643 27.9241 31.3618 28.656 32.148L27.222 34.1483C26.7042 33.6656 26.3208 33.3671 25.4544 33.3671C24.7224 33.3671 24.2893 33.7005 24.2893 34.2329C24.2893 36.1685 29.1589 35.7007 29.1589 39.4973C29.1589 41.5324 27.4062 42.9306 25.1556 42.9306C23.5872 42.9306 21.7698 42.2638 21.2021 41.0149L22.7208 39.1987C23.388 40.0496 24.4038 40.4327 25.2204 40.4327C25.9224 40.4327 26.3208 40.0844 26.3208 39.5321C26.3208 37.7806 21.4511 37.9996 21.4511 34.2329Z" fill="white"/>
<path d="M30.8213 31.0688H33.4901V42.7371H30.8213V31.0688Z" fill="white"/>
<path d="M35.9894 31.0688H38.6731L42.2731 35.9849L45.6739 31.0688H48.1934V42.7371H45.5245V35.3033L42.2731 39.8511H41.8897L38.6532 35.353V42.7371H35.9844V31.0688H35.9894Z" fill="white"/>
<path d="M50.5352 42.7326V31.0644C51.1874 31.0644 53.204 31.0295 54.1053 31.0295C57.6554 31.0295 58.8255 32.8805 58.8255 34.8957C58.8255 36.9109 57.2073 38.8117 54.5036 38.8117C54.2546 38.8117 53.6173 38.8117 53.204 38.7619V42.7276H50.5352V42.7326ZM53.204 33.5672V36.2342C53.5874 36.284 54.0355 36.3188 54.4239 36.3188C55.126 36.3188 55.9924 36.0203 55.9924 34.8858C55.9924 33.8508 55.3252 33.5373 54.3741 33.5373C54.0256 33.5373 53.7567 33.5523 53.209 33.5722L53.204 33.5672Z" fill="white"/>
<path d="M59.9893 31.0694H62.6581V40.2348H67.4133V42.7327H59.9942V31.0645L59.9893 31.0694Z" fill="white"/>
<path d="M68.7471 31.07H75.6682V33.5679H71.4159V35.6179H75.1702V38.1157H71.4159V40.2305H75.8375V42.7283H68.7471V31.0601V31.07Z" fill="white"/>
<path d="M22.0332 56.4787V44.8105C22.6855 44.8105 24.7021 44.7756 25.6033 44.7756C29.1535 44.7756 30.3236 46.6266 30.3236 48.6418C30.3236 50.657 28.7053 52.5578 26.0016 52.5578C25.7527 52.5578 25.1153 52.5578 24.7021 52.508V56.4737H22.0332V56.4787ZM24.7021 47.3133V49.9803C25.0855 50.0301 25.5336 50.0649 25.922 50.0649C26.624 50.0649 27.4904 49.7664 27.4904 48.6319C27.4904 47.5969 26.8232 47.2834 25.8722 47.2834C25.5236 47.2834 25.2548 47.2984 24.707 47.3183L24.7021 47.3133Z" fill="white"/>
<path d="M31.8232 56.4787V44.8105C32.4755 44.8105 35.4581 44.7756 35.7917 44.7756C38.9784 44.7756 40.1136 46.3579 40.1136 48.5075C40.1136 50.657 38.7792 51.5576 38.1468 51.8761L41.5476 56.4737H38.3112L35.478 52.3886H34.4921V56.4737H31.8232V56.4787ZM34.4921 47.3133V49.8957H35.4581C36.4738 49.8957 37.2755 49.5275 37.2755 48.5473C37.2755 47.8955 36.9419 47.2785 35.6572 47.2785C35.2589 47.2785 35.0398 47.2934 34.4921 47.3133Z" fill="white"/>
<path d="M47.25 44.6189C50.8002 44.6189 53.4541 46.9376 53.4541 50.6545C53.4541 54.3715 50.8002 56.6852 47.25 56.6852C43.6998 56.6852 41.0459 54.3665 41.0459 50.6545C41.0459 47.271 43.5305 44.6189 47.25 44.6189ZM47.25 54.1874C49.4707 54.1874 50.6209 52.62 50.6209 50.6545C50.6209 48.5199 49.1371 47.1217 47.25 47.1217C45.3629 47.1217 43.8791 48.5199 43.8791 50.6545C43.8791 52.6548 45.3778 54.1874 47.25 54.1874Z" fill="white"/>
<path d="M54.957 44.8166H55.1911C55.8085 44.8166 57.8748 44.7668 58.6416 44.7668C63.3121 44.7668 65.1943 47.4488 65.1943 50.5487C65.1943 53.8128 62.9586 56.5147 58.5072 56.5147C57.8898 56.5147 56.3562 56.4799 55.2408 56.4799H54.957V44.8116V44.8166ZM57.6259 47.3145V53.982C57.9744 54.0169 58.2085 54.0169 58.5919 54.0169C60.8922 54.0169 62.3611 52.7679 62.3611 50.5487C62.3611 48.3295 60.7777 47.2647 58.6068 47.2647C58.323 47.2647 57.9545 47.2647 57.6209 47.3145H57.6259Z" fill="white"/>
<path d="M76.3862 51.667C76.3862 55.2346 74.1157 56.6826 71.6161 56.6826C68.6136 56.6826 66.5273 54.9659 66.5273 51.5475V44.8153H69.1962V50.9803C69.1962 52.7965 69.7489 54.1797 71.6161 54.1797C73.2343 54.1797 73.7173 52.9955 73.7173 51.1296V44.8103H76.3862V51.662V51.667Z" fill="white"/>
<path d="M84.3551 56.6782C80.4763 56.6782 77.7178 54.4988 77.7178 50.7073C77.7178 47.3088 80.1128 44.7363 84.0912 44.7363V47.2093C82.3086 47.2093 80.526 48.3139 80.526 50.7073C80.526 53.1006 82.2738 54.2053 84.3551 54.2053V56.6782Z" fill="white"/>
<path d="M85.5088 44.8147H95.1834V47.3125H91.683V56.478H89.0142V47.3125H85.5138V44.8147H85.5088Z" fill="white"/>
<path d="M28.9543 65.5311H24.7021V70.2332H22.0332V58.5649H24.7021V63.0332H28.9543V58.5649H31.6232V70.2332H28.9543V65.5311Z" fill="white"/>
<path d="M43.6489 65.4172C43.6489 68.9848 41.3784 70.4328 38.8788 70.4328C35.8763 70.4328 33.79 68.7161 33.79 65.2978V58.5655H36.4589V64.7305C36.4589 66.5467 37.0116 67.93 38.8788 67.93C40.497 67.93 40.98 66.7457 40.98 64.8798V58.5605H43.6489V65.4122V65.4172Z" fill="white"/>
<path d="M45.8125 58.599C46.4648 58.5642 48.083 58.4995 49.3477 58.4995C52.1311 58.4995 53.2664 59.7833 53.2664 61.4004C53.2664 62.6195 52.7983 63.4355 51.9319 63.9978V64.0326C52.7834 64.3511 53.6 65.1969 53.6 66.6996C53.6 69.1477 51.6979 70.2971 49.1635 70.2971C48.0482 70.2971 46.4947 70.2623 45.8125 70.1976V58.599ZM48.4814 61.067V63.1817H49.3677C50.0498 63.1817 50.6025 62.8981 50.6025 62.0473C50.6025 61.3457 49.9701 60.9974 49.3179 60.9974C48.9843 60.9974 48.7851 61.0322 48.4863 61.062L48.4814 61.067ZM48.4814 65.5154V67.6998C48.6656 67.7495 48.8797 67.7993 49.3826 67.7993C50.4183 67.7993 50.9361 67.3515 50.9361 66.5653C50.9361 65.8338 50.3834 65.5154 49.517 65.5154H48.4814Z" fill="white"/>
</g>
<defs>
<clipPath id="clip0_14_816">
<rect width="127.03" height="78.0006" fill="white" transform="translate(0 -0.000732422)"/>
</clipPath>
</defs>
</svg>
