<svg width="128" height="78" viewBox="0 0 128 78" fill="none" xmlns="http://www.w3.org/2000/svg">
<path d="M21.4511 34.2339C21.4511 32.4326 22.8851 30.8652 25.2204 30.8652C26.7191 30.8652 27.9241 31.3628 28.656 32.149L27.222 34.1493C26.7042 33.6666 26.3208 33.3681 25.4544 33.3681C24.7224 33.3681 24.2893 33.7014 24.2893 34.2339C24.2893 36.1694 29.1589 35.7017 29.1589 39.4982C29.1589 41.5333 27.4062 42.9315 25.1556 42.9315C23.5872 42.9315 21.7698 42.2648 21.2021 41.0159L22.7208 39.1997C23.388 40.0506 24.4038 40.4337 25.2204 40.4337C25.9224 40.4337 26.3208 40.0854 26.3208 39.5331C26.3208 37.7816 21.4511 38.0005 21.4511 34.2339Z" fill="white"/>
<path d="M30.8213 31.0698H33.4901V42.7381H30.8213V31.0698Z" fill="white"/>
<path d="M35.9894 31.0698H38.6731L42.2731 35.9859L45.6739 31.0698H48.1934V42.7381H45.5245V35.3042L42.2731 39.8521H41.8897L38.6532 35.354V42.7381H35.9844V31.0698H35.9894Z" fill="white"/>
<path d="M50.5352 42.7338V31.0656C51.1874 31.0656 53.204 31.0308 54.1053 31.0308C57.6554 31.0308 58.8255 32.8818 58.8255 34.897C58.8255 36.9122 57.2073 38.8129 54.5036 38.8129C54.2546 38.8129 53.6173 38.8129 53.204 38.7632V42.7289H50.5352V42.7338ZM53.204 33.5684V36.2354C53.5874 36.2852 54.0355 36.32 54.4239 36.32C55.126 36.32 55.9924 36.0215 55.9924 34.887C55.9924 33.852 55.3252 33.5386 54.3741 33.5386C54.0256 33.5386 53.7567 33.5535 53.209 33.5734L53.204 33.5684Z" fill="white"/>
<path d="M59.9893 31.0704H62.6581V40.2358H67.4133V42.7337H59.9942V31.0654L59.9893 31.0704Z" fill="white"/>
<path d="M68.7471 31.071H75.6682V33.5688H71.4159V35.6189H75.1702V38.1167H71.4159V40.2314H75.8375V42.7293H68.7471V31.061V31.071Z" fill="white"/>
<path d="M22.0332 56.4794V44.8112C22.6855 44.8112 24.7021 44.7764 25.6033 44.7764C29.1535 44.7764 30.3236 46.6274 30.3236 48.6426C30.3236 50.6578 28.7053 52.5585 26.0016 52.5585C25.7527 52.5585 25.1153 52.5585 24.7021 52.5088V56.4745H22.0332V56.4794ZM24.7021 47.314V49.9811C25.0855 50.0308 25.5336 50.0656 25.922 50.0656C26.624 50.0656 27.4904 49.7671 27.4904 48.6326C27.4904 47.5976 26.8232 47.2842 25.8722 47.2842C25.5236 47.2842 25.2548 47.2991 24.707 47.319L24.7021 47.314Z" fill="white"/>
<path d="M31.8232 56.4794V44.8112C32.4755 44.8112 35.4581 44.7764 35.7917 44.7764C38.9784 44.7764 40.1136 46.3587 40.1136 48.5082C40.1136 50.6578 38.7792 51.5584 38.1468 51.8768L41.5476 56.4745H38.3112L35.478 52.3893H34.4921V56.4745H31.8232V56.4794ZM34.4921 47.314V49.8965H35.4581C36.4738 49.8965 37.2755 49.5283 37.2755 48.548C37.2755 47.8962 36.9419 47.2792 35.6572 47.2792C35.2589 47.2792 35.0398 47.2941 34.4921 47.314Z" fill="white"/>
<path d="M47.25 44.6196C50.8002 44.6196 53.4541 46.9384 53.4541 50.6553C53.4541 54.3722 50.8002 56.6859 47.25 56.6859C43.6998 56.6859 41.0459 54.3672 41.0459 50.6553C41.0459 47.2717 43.5305 44.6196 47.25 44.6196ZM47.25 54.1881C49.4707 54.1881 50.6209 52.6207 50.6209 50.6553C50.6209 48.5207 49.1371 47.1225 47.25 47.1225C45.3629 47.1225 43.8791 48.5207 43.8791 50.6553C43.8791 52.6555 45.3778 54.1881 47.25 54.1881Z" fill="white"/>
<path d="M54.957 44.8173H55.1911C55.8085 44.8173 57.8748 44.7676 58.6416 44.7676C63.3121 44.7676 65.1943 47.4495 65.1943 50.5495C65.1943 53.8136 62.9586 56.5154 58.5072 56.5154C57.8898 56.5154 56.3562 56.4806 55.2408 56.4806H54.957V44.8124V44.8173ZM57.6259 47.3152V53.9828C57.9744 54.0176 58.2085 54.0176 58.5919 54.0176C60.8922 54.0176 62.3611 52.7687 62.3611 50.5495C62.3611 48.3302 60.7777 47.2654 58.6068 47.2654C58.323 47.2654 57.9545 47.2654 57.6209 47.3152H57.6259Z" fill="white"/>
<path d="M76.3862 51.6682C76.3862 55.2358 74.1157 56.6838 71.6161 56.6838C68.6136 56.6838 66.5273 54.9671 66.5273 51.5488V44.8165H69.1962V50.9815C69.1962 52.7977 69.7489 54.181 71.6161 54.181C73.2343 54.181 73.7173 52.9967 73.7173 51.1308V44.8115H76.3862V51.6632V51.6682Z" fill="white"/>
<path d="M84.3551 56.6792C80.4763 56.6792 77.7178 54.4998 77.7178 50.7083C77.7178 47.3098 80.1128 44.7373 84.0912 44.7373V47.2103C82.3086 47.2103 80.526 48.3149 80.526 50.7083C80.526 53.1016 82.2738 54.2062 84.3551 54.2062V56.6792Z" fill="white"/>
<path d="M85.5088 44.8159H95.1834V47.3138H91.683V56.4792H89.0142V47.3138H85.5138V44.8159H85.5088Z" fill="white"/>
<path d="M28.9543 65.532H24.7021V70.2342H22.0332V58.5659H24.7021V63.0342H28.9543V58.5659H31.6232V70.2342H28.9543V65.532Z" fill="white"/>
<path d="M43.6489 65.4182C43.6489 68.9858 41.3784 70.4338 38.8788 70.4338C35.8763 70.4338 33.79 68.7171 33.79 65.2988V58.5665H36.4589V64.7315C36.4589 66.5477 37.0116 67.931 38.8788 67.931C40.497 67.931 40.98 66.7467 40.98 64.8808V58.5615H43.6489V65.4132V65.4182Z" fill="white"/>
<path d="M45.8125 58.6C46.4648 58.5652 48.083 58.5005 49.3477 58.5005C52.1311 58.5005 53.2664 59.7842 53.2664 61.4014C53.2664 62.6205 52.7983 63.4365 51.9319 63.9987V64.0336C52.7834 64.352 53.6 65.1979 53.6 66.7006C53.6 69.1487 51.6979 70.2981 49.1635 70.2981C48.0482 70.2981 46.4947 70.2633 45.8125 70.1986V58.6ZM48.4814 61.068V63.1827H49.3677C50.0498 63.1827 50.6025 62.8991 50.6025 62.0482C50.6025 61.3466 49.9701 60.9983 49.3179 60.9983C48.9843 60.9983 48.7851 61.0332 48.4863 61.063L48.4814 61.068ZM48.4814 65.5164V67.7007C48.6656 67.7505 48.8797 67.8003 49.3826 67.8003C50.4183 67.8003 50.9361 67.3524 50.9361 66.5663C50.9361 65.8348 50.3834 65.5164 49.517 65.5164H48.4814Z" fill="white"/>
</svg>
